<svg id="emoji" viewBox="0 0 72 72" xmlns="http://www.w3.org/2000/svg">
  <g id="color">
    <circle fill="#EA5A47" cx="36" cy="42" r="22"/>
    <path fill="#D22F27" d="M52,30 C58,36 58,52 50,58 C44,62 36,62 30,58 C38,58 50,50 52,30Z"/>
    <ellipse fill="#FCEA2B" cx="28" cy="36" rx="5" ry="6" opacity="0.35"/>
    <path fill="#5C9E31" d="M36,20 C33,14 27,10 24,13 C26,17 31,18 36,20Z"/>
    <path fill="#5C9E31" d="M36,20 C39,14 45,10 48,13 C46,17 41,18 36,20Z"/>
    <path fill="#5C9E31" d="M36,20 C32,12 33,6 36,5 C39,6 40,12 36,20Z"/>
    <rect fill="#5C9E31" x="34.5" y="17" width="3" height="6" rx="1.5"/>
  </g>
  <g id="line">
    <circle fill="none" stroke="#000" stroke-linecap="round" stroke-linejoin="round" stroke-width="2" cx="36" cy="42" r="22"/>
    <path fill="none" stroke="#000" stroke-linecap="round" stroke-linejoin="round" stroke-width="2" d="M36,20 C33,14 27,10 24,13 C26,17 31,18 36,20Z"/>
    <path fill="none" stroke="#000" stroke-linecap="round" stroke-linejoin="round" stroke-width="2" d="M36,20 C39,14 45,10 48,13 C46,17 41,18 36,20Z"/>
    <path fill="none" stroke="#000" stroke-linecap="round" stroke-linejoin="round" stroke-width="2" d="M36,20 C32,12 33,6 36,5 C39,6 40,12 36,20Z"/>
    <line x1="36" y1="17" x2="36" y2="22" stroke="#000" stroke-linecap="round" stroke-width="2"/>
  </g>
</svg>
